<?xml version="1.0" encoding="UTF-8"?>
<svg width="32" height="32" viewBox="0 0 32 32" fill="none" xmlns="http://www.w3.org/2000/svg">
  <rect width="32" height="32" rx="8" fill="#1E40AF"/>
  <g transform="translate(6, 8)">
    <rect x="0" y="8" width="2" height="12" rx="1" fill="url(#paint0_linear)" transform="rotate(-180 1 14)"/>
    <rect x="3" y="6" width="2" height="14" rx="1" fill="url(#paint0_linear)" transform="rotate(-180 4 13)"/>
    <rect x="6" y="4" width="2" height="16" rx="1" fill="url(#paint0_linear)" transform="rotate(-180 7 12)"/>
    <rect x="9" y="2" width="2" height="18" rx="1" fill="url(#paint0_linear)" transform="rotate(-180 10 11)"/>
    <rect x="12" y="0" width="2" height="20" rx="1" fill="url(#paint0_linear)" transform="rotate(-180 13 10)"/>
    <rect x="15" y="2" width="2" height="18" rx="1" fill="url(#paint0_linear)" transform="rotate(-180 16 11)"/>
    <rect x="18" y="4" width="2" height="16" rx="1" fill="url(#paint0_linear)" transform="rotate(-180 19 12)"/>
    <rect x="21" y="6" width="2" height="14" rx="1" fill="url(#paint0_linear)" transform="rotate(-180 22 13)"/>
  </g>
  <defs>
    <linearGradient id="paint0_linear" x1="0" y1="0" x2="0" y2="20" gradientUnits="userSpaceOnUse">
      <stop offset="0" stop-color="#60A5FA"/>
      <stop offset="1" stop-color="#2563EB"/>
    </linearGradient>
  </defs>
</svg> 